<?xml version="1.0" standalone="no"?>
<!DOCTYPE svg PUBLIC "-//W3C//DTD SVG 20010904//EN"
 "http://www.w3.org/TR/2001/REC-SVG-20010904/DTD/svg10.dtd">
<svg version="1.0" xmlns="http://www.w3.org/2000/svg"
 width="301.000000pt" height="301.000000pt" viewBox="0 0 301.000000 301.000000"
 preserveAspectRatio="xMidYMid meet">
<metadata>
Created by potrace 1.14, written by Peter Selinger 2001-2017
</metadata>
<g transform="translate(0.000000,301.000000) scale(0.100000,-0.100000)"
fill="#000000" stroke="none">
<path d="M923 2546 c-100 -33 -178 -100 -224 -191 -21 -43 -24 -64 -24 -150 0
-91 3 -105 30 -159 34 -68 98 -128 175 -165 48 -23 67 -26 160 -26 93 0 112 3
162 27 73 34 142 103 176 176 23 49 27 70 27 152 0 79 -4 103 -24 142 -36 75
-95 134 -168 170 -57 28 -78 33 -157 35 -57 2 -107 -2 -133 -11z"/>
<path d="M1652 2540 c-18 -11 -41 -34 -52 -52 -18 -31 -20 -51 -20 -283 0
-232 2 -252 20 -283 11 -18 34 -41 52 -52 31 -19 51 -20 304 -20 265 0 272 1
304 23 66 45 70 64 70 332 0 268 -4 287 -70 333 -32 21 -39 22 -304 22 -253 0
-273 -1 -304 -20z"/>
<path d="M732 1659 c-62 -40 -67 -59 -70 -310 -2 -137 1 -242 7 -266 6 -21 26
-54 46 -73 l36 -35 277 -3 c275 -3 278 -3 311 20 19 13 44 36 55 51 20 27 21
40 21 280 0 244 -1 253 -23 288 -40 66 -57 69 -359 69 -255 0 -270 -1 -301
-21z"/>
<path d="M1833 1666 c-143 -46 -239 -166 -251 -312 -11 -144 68 -278 206 -346
62 -31 74 -33 167 -33 93 0 105 2 167 33 129 63 200 178 201 323 1 63 -4 85
-30 140 -36 78 -96 139 -171 176 -48 23 -71 28 -152 30 -60 2 -110 -2 -137
-11z"/>
</g>
</svg>
