<svg width="1552" height="1080" viewBox="0 0 1552 1080" fill="none" xmlns="http://www.w3.org/2000/svg">
<g opacity="0.5" filter="url(#filter0_b)">
<rect x="351.57" width="1200" height="1080" rx="40" fill="white"/>
</g>
<rect x="736" y="744" width="431.962" height="9.59915" rx="4.79958" fill="#5A5F64"/>
<rect x="736" y="763.599" width="431.962" height="9.59915" rx="4.79958" fill="#5A5F64"/>
<rect x="736" y="783.198" width="431.962" height="9.59915" rx="4.79958" fill="#5A5F64"/>
<rect x="736" y="805" width="431.962" height="9.59915" rx="4.79958" fill="#5A5F64"/>
<rect x="736" y="824.599" width="431.962" height="9.59915" rx="4.79958" fill="#5A5F64"/>
<rect x="736" y="844.198" width="431.962" height="9.59915" rx="4.79958" fill="#5A5F64"/>
<rect x="736" y="866" width="431.962" height="9.59915" rx="4.79958" fill="#5A5F64"/>
<rect x="736" y="885.599" width="431.962" height="9.59915" rx="4.79958" fill="#5A5F64"/>
<rect x="736" y="905.198" width="431.962" height="9.59915" rx="4.79958" fill="#5A5F64"/>
<rect x="736" y="1001" width="431.962" height="9.59915" rx="4.79958" fill="#5A5F64"/>
<rect x="736" y="1020.6" width="431.962" height="9.59915" rx="4.79958" fill="#5A5F64"/>
<rect x="736" y="1040.2" width="431.962" height="9.59915" rx="4.79958" fill="#5A5F64"/>
<path d="M741 970L946 970" stroke="#141516" stroke-width="20" stroke-linecap="round"/>
<rect x="554.727" y="390.214" width="767.932" height="287.975" rx="50" fill="#A2ACB5"/>
<path d="M351.57 40C351.57 17.9086 369.479 0 391.57 0L1511.57 0C1533.66 0 1551.57 17.9086 1551.57 40V89.6341L351.57 89.6341V40Z" fill="#A2ACB5"/>
<rect x="692.955" y="164.634" width="491.496" height="38.8766" rx="19.4383" fill="#141516"/>
<rect x="722.712" y="248.506" width="431.962" height="9.59915" rx="4.79958" fill="#5A5F64"/>
<rect x="722.712" y="267.705" width="431.962" height="9.59915" rx="4.79958" fill="#5A5F64"/>
<rect x="722.712" y="286.903" width="431.962" height="9.59915" rx="4.79958" fill="#5A5F64"/>
<rect x="722.712" y="248.506" width="431.962" height="9.59915" rx="4.79958" fill="#5A5F64"/>
<rect x="722.712" y="267.705" width="431.962" height="9.59915" rx="4.79958" fill="#5A5F64"/>
<rect x="722.712" y="286.903" width="431.962" height="9.59915" rx="4.79958" fill="#5A5F64"/>
<rect x="883.018" y="327.82" width="20.5645" height="9.59915" rx="4.79958" fill="#5A5F64"/>
<rect x="913.26" y="327.82" width="57.258" height="9.59915" rx="4.79958" fill="#7C3AED"/>
<rect x="980.195" y="327.82" width="66.9354" height="9.59915" rx="4.79958" fill="#5A5F64"/>
<rect x="830.223" y="313.421" width="38.3966" height="38.3966" rx="19.1983" fill="#A2ACB5"/>
<rect x="80" y="583.524" width="717.5" height="320" rx="20" fill="#06243D"/>
<path d="M140 643.524L265.5 643.524M346 643.524L592 643.524M674 643.524L737.5 643.524" stroke="url(#paint0_linear)" stroke-width="15" stroke-linecap="round"/>
<path d="M140 693.524L265.5 693.524M346 693.524L484 693.524M564 693.524L737.5 693.524" stroke="url(#paint1_linear)" stroke-width="15" stroke-linecap="round"/>
<path d="M140 743.524L206.5 743.524M278.5 743.524L552 743.524" stroke="url(#paint2_linear)" stroke-width="15" stroke-linecap="round"/>
<path d="M140 793.524L265.5 793.524M346 793.524L444 793.524M510.5 793.524L608.5 793.524" stroke="url(#paint3_linear)" stroke-width="15" stroke-linecap="round"/>
<path d="M140 843.524L265.5 843.524M346 843.524L592 843.524M674 843.524L737.5 843.524" stroke="#A890C3" stroke-width="15" stroke-linecap="round"/>
<rect x="177.741" y="226.66" width="619.673" height="275.643" rx="20" fill="white"/>
<rect x="214.028" y="260.156" width="209.349" height="209.349" rx="15" fill="#F0F0F0"/>
<g filter="url(#filter1_ddd)">
<rect x="80" y="281.285" width="209.349" height="209.349" rx="15" transform="rotate(-15 80 281.285)" fill="url(#paint4_linear)"/>
</g>
<path d="M479 279.102L684 279.102" stroke="#141516" stroke-width="20" stroke-linecap="round"/>
<path d="M478.938 324.102L683.938 324.102" stroke="#5A5F64" stroke-width="15" stroke-linecap="round"/>
<path d="M479 357.102L636 357.102" stroke="#5A5F64" stroke-width="15" stroke-linecap="round"/>
<path d="M479 390.102L667 390.102" stroke="#5A5F64" stroke-width="15" stroke-linecap="round"/>
<rect x="474" y="433.102" width="119" height="36" rx="18" fill="#7C3AED"/>
<defs>
<filter id="filter0_b" x="341.57" y="-10" width="1220" height="1100" filterUnits="userSpaceOnUse" color-interpolation-filters="sRGB">
<feFlood flood-opacity="0" result="BackgroundImageFix"/>
<feGaussianBlur in="BackgroundImage" stdDeviation="5"/>
<feComposite in2="SourceAlpha" operator="in" result="effect1_backgroundBlur"/>
<feBlend mode="normal" in="SourceGraphic" in2="effect1_backgroundBlur" result="shape"/>
</filter>
<filter id="filter1_ddd" x="0" y="227.102" width="416.399" height="436.399" filterUnits="userSpaceOnUse" color-interpolation-filters="sRGB">
<feFlood flood-opacity="0" result="BackgroundImageFix"/>
<feColorMatrix in="SourceAlpha" type="matrix" values="0 0 0 0 0 0 0 0 0 0 0 0 0 0 0 0 0 0 127 0" result="hardAlpha"/>
<feOffset dy="6.6501"/>
<feGaussianBlur stdDeviation="2.66004"/>
<feColorMatrix type="matrix" values="0 0 0 0 0 0 0 0 0 0 0 0 0 0 0 0 0 0 0.0282725 0"/>
<feBlend mode="normal" in2="BackgroundImageFix" result="effect1_dropShadow"/>
<feColorMatrix in="SourceAlpha" type="matrix" values="0 0 0 0 0 0 0 0 0 0 0 0 0 0 0 0 0 0 127 0" result="hardAlpha"/>
<feOffset dy="22.3363"/>
<feGaussianBlur stdDeviation="8.93452"/>
<feColorMatrix type="matrix" values="0 0 0 0 0 0 0 0 0 0 0 0 0 0 0 0 0 0 0.0417275 0"/>
<feBlend mode="normal" in2="effect1_dropShadow" result="effect2_dropShadow"/>
<feColorMatrix in="SourceAlpha" type="matrix" values="0 0 0 0 0 0 0 0 0 0 0 0 0 0 0 0 0 0 127 0" result="hardAlpha"/>
<feOffset dy="100"/>
<feGaussianBlur stdDeviation="40"/>
<feColorMatrix type="matrix" values="0 0 0 0 0 0 0 0 0 0 0 0 0 0 0 0 0 0 0.07 0"/>
<feBlend mode="normal" in2="effect2_dropShadow" result="effect3_dropShadow"/>
<feBlend mode="normal" in="SourceGraphic" in2="effect3_dropShadow" result="shape"/>
</filter>
<linearGradient id="paint0_linear" x1="140" y1="644.024" x2="737" y2="644.024" gradientUnits="userSpaceOnUse">
<stop stop-color="#A788DC"/>
<stop offset="1" stop-color="#7C3AED"/>
</linearGradient>
<linearGradient id="paint1_linear" x1="140" y1="694.024" x2="737" y2="694.024" gradientUnits="userSpaceOnUse">
<stop stop-color="#7C3AED"/>
<stop offset="1" stop-color="#AA97EB"/>
</linearGradient>
<linearGradient id="paint2_linear" x1="737" y1="744.035" x2="140" y2="744.035" gradientUnits="userSpaceOnUse">
<stop stop-color="#7C3AED"/>
<stop offset="1" stop-color="#AA97EB"/>
</linearGradient>
<linearGradient id="paint3_linear" x1="737" y1="794.035" x2="140" y2="794.035" gradientUnits="userSpaceOnUse">
<stop stop-color="#AA97EB"/>
<stop offset="1" stop-color="#7C3AED"/>
</linearGradient>
<linearGradient id="paint4_linear" x1="79.4044" y1="283.611" x2="289.441" y2="489.639" gradientUnits="userSpaceOnUse">
<stop stop-color="#AA97EB"/>
<stop offset="1" stop-color="#7C3AED"/>
</linearGradient>
</defs>
</svg>
