<svg width="3239" height="2469" viewBox="0 0 3239 2469" fill="none" xmlns="http://www.w3.org/2000/svg">
<g clip-path="url(#clip0)">
<g opacity="0.5" filter="url(#filter0_b)">
<rect width="2425" height="2252.38" rx="80" transform="matrix(0.994522 0.104528 -0.180862 0.983508 826.764 0)" fill="white"/>
</g>
<rect width="1600" height="600" rx="50" transform="matrix(0.994522 0.104528 -0.180862 0.983508 1127.9 639.176)" fill="#A2ACB5"/>
<rect width="1024.04" height="81" rx="40.5" transform="matrix(0.994522 0.104528 -0.180862 0.983508 1488.42 205.886)" fill="#141516"/>
<rect width="650" height="20" rx="10" transform="matrix(0.994522 0.104528 -0.180862 0.983508 1646.96 379.944)" fill="#5A5F64"/>
<rect width="650" height="20" rx="10" transform="matrix(0.994522 0.104528 -0.180862 0.983508 1639.73 419.284)" fill="#5A5F64"/>
<rect width="650" height="20" rx="10" transform="matrix(0.994522 0.104528 -0.180862 0.983508 1632.49 458.625)" fill="#5A5F64"/>
<rect width="650" height="20" rx="10" transform="matrix(0.994522 0.104528 -0.180862 0.983508 1474.33 1357.3)" fill="#5A5F64"/>
<rect width="650" height="20" rx="10" transform="matrix(0.994522 0.104528 -0.180862 0.983508 1467.09 1396.64)" fill="#5A5F64"/>
<rect width="650" height="20" rx="10" transform="matrix(0.994522 0.104528 -0.180862 0.983508 1459.86 1435.98)" fill="#5A5F64"/>
<rect width="650" height="20" rx="10" transform="matrix(0.994522 0.104528 -0.180862 0.983508 1429.47 1601.21)" fill="#5A5F64"/>
<rect width="650" height="20" rx="10" transform="matrix(0.994522 0.104528 -0.180862 0.983508 1422.24 1640.55)" fill="#5A5F64"/>
<rect width="650" height="20" rx="10" transform="matrix(0.994522 0.104528 -0.180862 0.983508 1415 1679.89)" fill="#5A5F64"/>
<rect width="650" height="20" rx="10" transform="matrix(0.994522 0.104528 -0.180862 0.983508 1406.5 1726.12)" fill="#5A5F64"/>
<rect width="650" height="20" rx="10" transform="matrix(0.994522 0.104528 -0.180862 0.983508 1399.27 1765.46)" fill="#5A5F64"/>
<rect width="446" height="20" rx="10" transform="matrix(0.994522 0.104528 -0.180862 0.983508 1392.03 1804.8)" fill="#5A5F64"/>
<rect width="322" height="30" rx="15" transform="matrix(0.994522 0.104528 -0.180862 0.983508 1442.13 1532.36)" fill="#141516"/>
<rect width="650" height="20" rx="10" transform="matrix(0.994522 0.104528 -0.180862 0.983508 1361.65 1970.03)" fill="#5A5F64"/>
<rect width="650" height="20" rx="10" transform="matrix(0.994522 0.104528 -0.180862 0.983508 1354.42 2009.37)" fill="#5A5F64"/>
<rect width="650" height="20" rx="10" transform="matrix(0.994522 0.104528 -0.180862 0.983508 1347.18 2048.71)" fill="#5A5F64"/>
<rect width="650" height="20" rx="10" transform="matrix(0.994522 0.104528 -0.180862 0.983508 1339.41 2087.54)" fill="#5A5F64"/>
<rect width="650" height="20" rx="10" transform="matrix(0.994522 0.104528 -0.180862 0.983508 1332.18 2126.88)" fill="#5A5F64"/>
<rect width="650" height="20" rx="10" transform="matrix(0.994522 0.104528 -0.180862 0.983508 1324.94 2166.22)" fill="#5A5F64"/>
<rect width="650" height="20" rx="10" transform="matrix(0.994522 0.104528 -0.180862 0.983508 1319.72 2209.52)" fill="#5A5F64"/>
<rect width="650" height="20" rx="10" transform="matrix(0.994522 0.104528 -0.180862 0.983508 1312.49 2248.86)" fill="#5A5F64"/>
<rect width="650" height="20" rx="10" transform="matrix(0.994522 0.104528 -0.180862 0.983508 1305.25 2288.2)" fill="#5A5F64"/>
<rect width="650" height="20" rx="10" transform="matrix(0.994522 0.104528 -0.180862 0.983508 1299.41 2332.94)" fill="#5A5F64"/>
<rect width="650" height="20" rx="10" transform="matrix(0.994522 0.104528 -0.180862 0.983508 1292.18 2372.28)" fill="#5A5F64"/>
<rect width="650" height="20" rx="10" transform="matrix(0.994522 0.104528 -0.180862 0.983508 1284.95 2411.62)" fill="#5A5F64"/>
<rect width="229" height="30" rx="15" transform="matrix(0.994522 0.104528 -0.180862 0.983508 1374.31 1901.18)" fill="#141516"/>
<rect width="42.8465" height="20" rx="10" transform="matrix(0.994522 0.104528 -0.180862 0.983508 1811.84 580.734)" fill="#5A5F64"/>
<rect width="119.298" height="20" rx="10" transform="matrix(0.994522 0.104528 -0.180862 0.983508 1874.51 587.321)" fill="#7C3AED"/>
<rect width="139.461" height="20" rx="10" transform="matrix(0.994522 0.104528 -0.180862 0.983508 2013.2 601.898)" fill="#5A5F64"/>
<rect width="80" height="80" rx="40" transform="matrix(0.994522 0.104528 -0.180862 0.983508 1707.87 539.731)" fill="#A2ACB5"/>
</g>
<g filter="url(#filter1_b)">
<rect width="448.91" height="450" rx="71" transform="matrix(0.995805 0.0915016 -0.180862 0.983508 671.341 1162.98)" fill="url(#paint0_linear)"/>
</g>
<g filter="url(#filter2_b)">
<path d="M658.801 1228.17C665.521 1191.62 701.063 1164.76 738.186 1168.18L1051.86 1197C1088.99 1200.41 1113.63 1232.8 1106.91 1269.34L1056.01 1546.15C1049.29 1582.7 1013.75 1609.56 976.624 1606.15L662.946 1577.32C625.823 1573.91 601.176 1541.52 607.896 1504.98L658.801 1228.17Z" fill="url(#paint1_linear)"/>
</g>
<g clip-path="url(#clip1)">
<path fill-rule="evenodd" clip-rule="evenodd" d="M749.778 1244.25L1013.14 1268.45L965.309 1528.56L701.945 1504.36L749.778 1244.25ZM911.009 1480.81C898.795 1479.69 893.049 1472.77 889.323 1463.72L867.086 1473.41C871.744 1488.26 884.602 1500.44 907.591 1502.55C931.097 1504.71 950.816 1494.27 954.863 1472.25C958.616 1451.85 948.411 1441.68 929.026 1430.83L923.318 1427.65C913.532 1422.12 909.478 1418.74 910.828 1411.41C911.918 1405.48 917.362 1401.36 924.604 1402.02C931.704 1402.68 935.736 1406.06 938.602 1413.96L960.117 1403.51C954.569 1388.6 944.261 1382.15 928.525 1380.71C906.424 1378.68 889.712 1391.34 886.34 1409.67C882.683 1429.56 892.802 1440.07 909.286 1449.22L914.993 1452.41C925.387 1458.33 931.568 1461.91 930.027 1470.29C928.74 1477.29 921.258 1481.75 911.009 1480.81V1480.81ZM815.13 1471.84C806.626 1471.05 804.138 1464.98 801.509 1457.8L779.145 1468C782.739 1480.74 792.355 1491.92 812.163 1493.74C834.099 1495.75 851.24 1485.61 855.894 1460.31L871.24 1376.85L846.495 1374.58L831.208 1457.71C828.962 1469.92 823.251 1472.58 815.119 1471.83L815.13 1471.84Z" fill="#7C3AED"/>
</g>
<g filter="url(#filter3_b)">
<rect width="448.91" height="450" rx="71" transform="matrix(0.995805 0.0915016 -0.180862 0.983508 821.341 567.978)" fill="url(#paint2_linear)"/>
</g>
<g filter="url(#filter4_b)">
<path d="M808.801 633.166C815.521 596.623 851.063 569.765 888.186 573.176L1201.86 601.999C1238.99 605.41 1263.63 637.799 1256.91 674.342L1206.01 951.155C1199.29 987.698 1163.75 1014.56 1126.62 1011.15L812.946 982.322C775.823 978.911 751.176 946.522 757.896 909.979L808.801 633.166Z" fill="url(#paint3_linear)"/>
</g>
<g clip-path="url(#clip2)">
<path d="M982.101 656.815L1010.39 659.414L1008.24 671.098L991.782 669.585L989.633 681.269L1006.09 682.781L1003.95 694.465L975.655 691.865L982.101 656.815Z" fill="#7C3AED"/>
<path d="M1016.04 659.934L1044.34 662.534L1042.47 672.7L1026.01 671.188L1025.64 673.214L1042.1 674.727L1037.8 698.094L1009.5 695.493L1011.46 684.828L1027.92 686.341L1028.3 684.303L1011.84 682.791L1016.04 659.934Z" fill="#7C3AED"/>
<path d="M1050 663.054L1078.28 665.653L1076.41 675.819L1059.95 674.306L1059.58 676.333L1076.04 677.846L1071.74 701.212L1043.47 698.614L1045.43 687.949L1061.89 689.462L1062.26 687.424L1045.8 685.912L1050 663.054Z" fill="#7C3AED"/>
<path fill-rule="evenodd" clip-rule="evenodd" d="M983.528 921.454L911.171 893.556L923.297 703.399L1120.82 721.549L1063.78 907.557L983.528 921.454ZM952.05 792.623L949.904 815.879L1030.86 823.317L1022.64 852.981L995.314 857.545L995.292 857.543L970.56 848.217L972.275 829.672L948.824 827.517L945.434 864.038L990.866 881.548L1041.2 872.838L1058.92 808.736L1060.63 802.6L1073.43 756.286L956.435 745.536L954.321 768.805L1043.6 777.009L1037.13 800.44L952.05 792.623V792.623Z" fill="#7C3AED"/>
</g>
<g filter="url(#filter5_b)">
<rect width="448.91" height="450" rx="71" transform="matrix(0.995805 0.0915016 -0.180862 0.983508 81.9315 1080.98)" fill="url(#paint4_linear)"/>
</g>
<g filter="url(#filter6_b)">
<path d="M69.3911 1146.17C76.1112 1109.62 111.653 1082.76 148.776 1086.18L462.454 1115C499.577 1118.41 524.223 1150.8 517.503 1187.34L466.599 1464.15C459.879 1500.7 424.337 1527.56 387.214 1524.15L73.5356 1495.32C36.4128 1491.91 11.7665 1459.52 18.4865 1422.98L69.3911 1146.17Z" fill="url(#paint5_linear)"/>
</g>
<g clip-path="url(#clip3)">
<path d="M281.088 1233.96C207.248 1227.17 143.716 1252.8 136.452 1292.31C129.187 1331.81 181.338 1368.07 255.179 1374.85C329.019 1381.64 392.551 1356.01 399.816 1316.51C407.08 1277 354.929 1240.74 281.088 1233.96ZM263.429 1254.38L277.805 1255.7L269.254 1276.96L282.093 1278.14C290.235 1278.88 295.492 1280.51 298.093 1283.61C300.622 1286.66 300.707 1291.3 298.349 1297.38L287.881 1322.75L273.264 1321.41L282.923 1297.95C284.164 1294.73 284.332 1292.42 283.434 1291.11C282.547 1289.81 280.209 1288.98 276.544 1288.65L265.033 1287.59L252.107 1319.47L237.71 1318.14L263.429 1254.38V1254.38ZM196.302 1270.25L225.557 1272.94C239.504 1274.22 246.256 1284.23 240.42 1297.7C233.635 1313.36 222.567 1316.75 203.648 1315.01L194.606 1314.18L188.753 1330.18L174.213 1328.84L196.302 1270.25ZM311.524 1280.84L340.779 1283.53C354.726 1284.81 361.478 1294.82 355.642 1308.29C348.857 1323.95 337.778 1327.34 318.87 1325.6L309.828 1324.77L303.974 1340.76L289.435 1339.43L311.524 1280.84ZM206.764 1282.24L198.64 1303.53L208.023 1304.39C216.143 1305.14 223.86 1304.92 227.323 1293.07C228.646 1288.49 227.46 1284.14 218.077 1283.28L206.764 1282.24ZM321.985 1292.82L313.862 1314.12L323.245 1314.98C331.365 1315.73 339.082 1315.51 342.545 1303.66C343.867 1299.08 342.692 1294.73 333.299 1293.86L321.985 1292.82V1292.82Z" fill="#7C3AED"/>
</g>
<g filter="url(#filter7_b)">
<rect width="448.91" height="449.059" rx="71" transform="matrix(0.995805 0.0915016 -0.188924 0.981992 184.924 526.974)" fill="url(#paint6_linear)"/>
</g>
<g filter="url(#filter8_b)">
<path d="M171.887 591.863C178.886 555.488 214.653 528.765 251.776 532.176L565.454 560.999C602.577 564.41 626.998 596.664 620 633.039L566.988 908.584C559.99 944.959 524.223 971.682 487.1 968.271L173.421 939.448C136.298 936.037 111.878 903.783 118.876 867.408L171.887 591.863Z" fill="url(#paint7_linear)"/>
</g>
<g clip-path="url(#clip4)">
<path fill-rule="evenodd" clip-rule="evenodd" d="M355.105 616.622C328.253 614.155 302.383 634.387 297.147 661.602C293.964 678.148 299.125 693.578 309.679 703.677C302.451 707.771 296.152 713.372 291.289 720.032C286.426 726.692 283.133 734.224 281.674 742.026C278.489 758.583 283.653 774.001 294.206 784.1C286.978 788.195 280.68 793.796 275.817 800.456C270.953 807.116 267.661 814.648 266.202 822.45C260.966 849.666 278.288 873.866 305.14 876.333C331.981 878.8 357.862 858.569 363.098 831.354L371.138 789.562C378.282 797.319 388.243 802.127 399.29 803.15C426.145 805.607 452.015 785.375 457.251 758.159C460.436 741.603 455.283 726.185 444.719 716.085C451.947 711.991 458.245 706.389 463.108 699.73C467.971 693.07 471.264 685.537 472.723 677.736C477.959 650.52 460.637 626.32 433.785 623.852L355.105 616.622V616.622ZM315.352 663.275C318.664 646.059 334.946 633.525 351.56 635.051L381.792 637.829L369.862 699.835L339.63 697.057C323.017 695.531 312.042 680.481 315.352 663.275V663.275ZM418.313 704.276L388.081 701.498L400.01 639.492L430.242 642.27C446.867 643.798 457.83 658.846 454.518 676.063C451.208 693.269 434.937 705.804 418.313 704.276ZM299.89 743.7C303.201 726.494 319.484 713.949 336.098 715.476L366.33 718.254L354.401 780.26L324.158 777.481C307.533 775.953 296.569 760.905 299.879 743.699L299.89 743.7ZM378.57 750.93C381.881 733.724 398.164 721.179 414.778 722.706C431.403 724.233 442.369 739.271 439.056 756.488C435.746 773.693 419.474 786.239 402.849 784.712C386.235 783.185 375.269 768.147 378.581 750.931L378.57 750.93ZM284.418 824.124C287.728 806.918 304.009 794.384 320.623 795.911L350.855 798.689L344.893 829.681C341.581 846.897 325.321 859.433 308.696 857.906C292.082 856.379 281.106 841.341 284.418 824.124Z" fill="#7C3AED"/>
</g>
<defs>
<filter id="filter0_b" x="422.543" y="-2.0874" width="2812.79" height="2472.89" filterUnits="userSpaceOnUse" color-interpolation-filters="sRGB">
<feFlood flood-opacity="0" result="BackgroundImageFix"/>
<feGaussianBlur in="BackgroundImage" stdDeviation="5"/>
<feComposite in2="SourceAlpha" operator="in" result="effect1_backgroundBlur"/>
<feBlend mode="normal" in="SourceGraphic" in2="effect1_backgroundBlur" result="shape"/>
</filter>
<filter id="filter1_b" x="551.625" y="1119.17" width="605.071" height="571.274" filterUnits="userSpaceOnUse" color-interpolation-filters="sRGB">
<feFlood flood-opacity="0" result="BackgroundImageFix"/>
<feGaussianBlur in="BackgroundImage" stdDeviation="25"/>
<feComposite in2="SourceAlpha" operator="in" result="effect1_backgroundBlur"/>
<feBlend mode="normal" in="SourceGraphic" in2="effect1_backgroundBlur" result="shape"/>
</filter>
<filter id="filter2_b" x="556.792" y="1117.88" width="601.225" height="538.553" filterUnits="userSpaceOnUse" color-interpolation-filters="sRGB">
<feFlood flood-opacity="0" result="BackgroundImageFix"/>
<feGaussianBlur in="BackgroundImage" stdDeviation="25"/>
<feComposite in2="SourceAlpha" operator="in" result="effect1_backgroundBlur"/>
<feBlend mode="normal" in="SourceGraphic" in2="effect1_backgroundBlur" result="shape"/>
</filter>
<filter id="filter3_b" x="701.625" y="524.168" width="605.071" height="571.274" filterUnits="userSpaceOnUse" color-interpolation-filters="sRGB">
<feFlood flood-opacity="0" result="BackgroundImageFix"/>
<feGaussianBlur in="BackgroundImage" stdDeviation="25"/>
<feComposite in2="SourceAlpha" operator="in" result="effect1_backgroundBlur"/>
<feBlend mode="normal" in="SourceGraphic" in2="effect1_backgroundBlur" result="shape"/>
</filter>
<filter id="filter4_b" x="706.792" y="522.884" width="601.225" height="538.553" filterUnits="userSpaceOnUse" color-interpolation-filters="sRGB">
<feFlood flood-opacity="0" result="BackgroundImageFix"/>
<feGaussianBlur in="BackgroundImage" stdDeviation="25"/>
<feComposite in2="SourceAlpha" operator="in" result="effect1_backgroundBlur"/>
<feBlend mode="normal" in="SourceGraphic" in2="effect1_backgroundBlur" result="shape"/>
</filter>
<filter id="filter5_b" x="-37.7844" y="1037.17" width="605.071" height="571.274" filterUnits="userSpaceOnUse" color-interpolation-filters="sRGB">
<feFlood flood-opacity="0" result="BackgroundImageFix"/>
<feGaussianBlur in="BackgroundImage" stdDeviation="25"/>
<feComposite in2="SourceAlpha" operator="in" result="effect1_backgroundBlur"/>
<feBlend mode="normal" in="SourceGraphic" in2="effect1_backgroundBlur" result="shape"/>
</filter>
<filter id="filter6_b" x="-32.6177" y="1035.88" width="601.225" height="538.553" filterUnits="userSpaceOnUse" color-interpolation-filters="sRGB">
<feFlood flood-opacity="0" result="BackgroundImageFix"/>
<feGaussianBlur in="BackgroundImage" stdDeviation="25"/>
<feComposite in2="SourceAlpha" operator="in" result="effect1_backgroundBlur"/>
<feBlend mode="normal" in="SourceGraphic" in2="effect1_backgroundBlur" result="shape"/>
</filter>
<filter id="filter7_b" x="62.2257" y="483.164" width="607.587" height="569.668" filterUnits="userSpaceOnUse" color-interpolation-filters="sRGB">
<feFlood flood-opacity="0" result="BackgroundImageFix"/>
<feGaussianBlur in="BackgroundImage" stdDeviation="25"/>
<feComposite in2="SourceAlpha" operator="in" result="effect1_backgroundBlur"/>
<feBlend mode="normal" in="SourceGraphic" in2="effect1_backgroundBlur" result="shape"/>
</filter>
<filter id="filter8_b" x="67.6794" y="481.883" width="603.517" height="536.681" filterUnits="userSpaceOnUse" color-interpolation-filters="sRGB">
<feFlood flood-opacity="0" result="BackgroundImageFix"/>
<feGaussianBlur in="BackgroundImage" stdDeviation="25"/>
<feComposite in2="SourceAlpha" operator="in" result="effect1_backgroundBlur"/>
<feBlend mode="normal" in="SourceGraphic" in2="effect1_backgroundBlur" result="shape"/>
</filter>
<linearGradient id="paint0_linear" x1="-7.88823e-06" y1="386.538" x2="438.501" y2="423.168" gradientUnits="userSpaceOnUse">
<stop stop-color="#C4C4C4"/>
<stop offset="1" stop-color="#ABABAB"/>
</linearGradient>
<linearGradient id="paint1_linear" x1="895.025" y1="1182.59" x2="857.114" y2="1595.16" gradientUnits="userSpaceOnUse">
<stop stop-color="#FDFBFB"/>
<stop offset="1" stop-color="#EBEDEE"/>
</linearGradient>
<linearGradient id="paint2_linear" x1="-7.88823e-06" y1="386.538" x2="438.501" y2="423.168" gradientUnits="userSpaceOnUse">
<stop stop-color="#C4C4C4"/>
<stop offset="1" stop-color="#ABABAB"/>
</linearGradient>
<linearGradient id="paint3_linear" x1="1045.02" y1="587.587" x2="1007.11" y2="1000.16" gradientUnits="userSpaceOnUse">
<stop stop-color="#FDFBFB"/>
<stop offset="1" stop-color="#EBEDEE"/>
</linearGradient>
<linearGradient id="paint4_linear" x1="-7.88823e-06" y1="386.538" x2="438.501" y2="423.168" gradientUnits="userSpaceOnUse">
<stop stop-color="#C4C4C4"/>
<stop offset="1" stop-color="#ABABAB"/>
</linearGradient>
<linearGradient id="paint5_linear" x1="305.615" y1="1100.59" x2="267.705" y2="1513.16" gradientUnits="userSpaceOnUse">
<stop stop-color="#FDFBFB"/>
<stop offset="1" stop-color="#EBEDEE"/>
</linearGradient>
<linearGradient id="paint6_linear" x1="-7.88823e-06" y1="385.73" x2="438.489" y2="422.435" gradientUnits="userSpaceOnUse">
<stop stop-color="#C4C4C4"/>
<stop offset="1" stop-color="#ABABAB"/>
</linearGradient>
<linearGradient id="paint7_linear" x1="408.615" y1="546.588" x2="370.849" y2="957.589" gradientUnits="userSpaceOnUse">
<stop stop-color="#FDFBFB"/>
<stop offset="1" stop-color="#EBEDEE"/>
</linearGradient>
<clipPath id="clip0">
<rect width="2425" height="2252.25" fill="white" transform="matrix(0.994522 0.104528 -0.180862 0.983508 826.764 0)"/>
</clipPath>
<clipPath id="clip1">
<rect width="264.474" height="264.474" fill="white" transform="matrix(0.995805 0.0915016 -0.180862 0.983508 749.778 1244.25)"/>
</clipPath>
<clipPath id="clip2">
<rect width="264.474" height="264.474" fill="white" transform="matrix(0.995805 0.0915016 -0.180862 0.983508 899.778 649.25)"/>
</clipPath>
<clipPath id="clip3">
<rect width="264.474" height="264.474" fill="white" transform="matrix(0.995805 0.0915016 -0.180862 0.983508 160.368 1162.25)"/>
</clipPath>
<clipPath id="clip4">
<rect width="264.474" height="264.474" fill="white" transform="matrix(0.995805 0.0915016 -0.188924 0.981992 262.764 608.137)"/>
</clipPath>
</defs>
</svg>
