<svg width="1201" height="600" viewBox="0 0 1201 600" fill="none" xmlns="http://www.w3.org/2000/svg">
<rect x="0.570312" width="1200" height="600" fill="#A890C3"/>
<rect width="472" height="472" transform="translate(364.57 64)" fill="#A890C3"/>
<path d="M490.909 230.904C490.909 230.904 476.05 236.783 473.864 251.061C471.679 265.339 505.445 307.163 505.445 307.163L609.573 251.052L576.651 193.276L490.909 230.904Z" fill="#C7DCF9"/>
<path d="M513.932 244.4C513.932 244.4 502.975 255.65 499.615 268.096C496.254 280.543 495.821 302.771 496.381 311.096C512.726 326.222 577.333 313.548 577.333 313.548L639.593 240.31C639.593 240.31 629.039 220.271 623.681 214.778C618.323 209.284 600.955 202.453 580.917 210.517C569.156 227.207 513.932 244.4 513.932 244.4Z" fill="#E1ECFF"/>
<g style="mix-blend-mode:multiply">
<path d="M509.042 250.217C509.042 250.217 533.214 257.975 560.424 247.464C587.634 236.953 592.564 207.348 592.564 207.348L580.903 210.521L513.932 244.4L509.042 250.217Z" fill="#E1ECFF"/>
</g>
<path d="M607.445 341.029C607.445 341.029 638.007 341.226 646.595 343.42C655.182 345.614 677.913 397.057 687.318 401.983C696.723 406.908 704.712 398.727 715.074 392.652C725.436 386.577 734.933 379.226 735.23 376.158C735.527 373.09 731.126 360.831 727.32 358.358C723.513 355.884 712.46 355.709 706.565 359.485C697.903 335.885 685.587 301.468 674.294 296.731C663.001 291.993 628.777 289.738 628.777 289.738L607.445 341.029Z" fill="#E1ECFF"/>
<g style="mix-blend-mode:multiply" opacity="0.51">
<path d="M639.593 318.504C639.593 318.504 664.478 321.227 671.353 330.488C678.227 339.749 691.85 396.415 707.098 397.756C707.343 416.112 675.762 422.742 675.762 422.742L600.063 338.63L639.593 318.504Z" fill="#E1ECFF"/>
</g>
<path d="M525.334 336.388C525.334 336.388 544.127 375.804 561.171 386.555C578.216 397.306 609.097 396.437 617.615 403.477C626.132 410.518 624.332 444.34 632.845 453.3C641.359 462.259 653.338 467.748 664.535 466.738C675.732 465.729 684.691 460.358 684.805 455.319C684.918 450.28 684.468 445.909 679.206 443.221C673.944 440.534 666.532 438.296 666.213 435.162C665.894 432.029 659.942 384.322 657.472 371.355C655.003 358.388 635.826 340.352 611.111 331.266C587.708 311.669 551.762 320.064 551.762 320.064L525.334 336.388Z" fill="#E1ECFF"/>
<g style="mix-blend-mode:multiply">
<path d="M530.802 346.933C530.802 346.933 552.369 348.035 571.739 339.526C568.037 319.815 556.617 313.994 556.617 313.994L525.334 336.388L530.802 346.933Z" fill="#E1ECFF"/>
</g>
<path d="M560.647 141.093C543.755 132.051 508.355 129.001 486.504 156.101C464.652 183.202 475.543 211.308 484.725 224.393C494.34 238.124 527.388 259.111 562.662 239.4C597.935 219.69 601.632 163.041 560.647 141.093Z" fill="#E1ECFF"/>
<path d="M557.741 157.666C572.744 161.249 582.49 182.302 577.451 202.458C572.412 222.614 555.053 236.166 535.57 236.276C516.087 236.385 496.713 223.081 496.818 198.205C496.922 174.299 525.159 149.887 557.741 157.666Z" fill="#1C3177"/>
<g style="mix-blend-mode:multiply">
<path d="M514.513 315.113C534.062 306.04 519.439 285.324 538.926 280.613C564.619 284.267 571.726 282.956 571.726 282.956C571.726 282.956 522.572 326.126 514.513 315.113Z" fill="#E1ECFF"/>
</g>
<path d="M530.802 259.705L563.335 343.42L609.359 342.323L651.463 315.672L664.006 277.598L633.549 186.222L618.764 228.999L580.467 259.456L530.802 259.705Z" fill="#FF97C9"/>
<path d="M514.513 315.113C525.299 314.239 530.793 307.215 534.062 304.099C535.727 302.509 535.395 301.114 534.556 296.526C533.717 291.937 536.627 287.23 540.604 285.215C542.79 291.093 545.473 292.208 547.545 291.932C549.616 291.657 551.745 279.28 558.519 279.389C565.293 279.499 570.725 288.462 571.63 292.937C572.534 297.413 568.16 310.179 562.67 319.138C557.181 328.097 549.437 339.189 532.004 342.659C514.57 346.129 504.658 337.227 498.946 325.973C497.019 322.175 496.324 316.926 496.385 311.079C496.385 311.079 500.288 316.232 514.513 315.113Z" fill="#E1ECFF"/>
<path d="M644.038 217.693C644.038 217.693 646.114 224.445 644.715 227.076C643.317 229.707 641.411 231.883 640.013 235.253C638.614 238.623 640.686 251.323 646.844 253.504C653.002 255.684 658.097 249.977 659.723 246.673C661.349 243.369 660.449 234.694 658.041 228.645C655.633 222.596 651.105 217.221 644.038 217.693Z" fill="#E1ECFF"/>
<path d="M651.118 133.799L652.499 136.596C652.582 136.766 652.705 136.912 652.857 137.024C653.009 137.135 653.186 137.207 653.373 137.234L656.463 137.671C656.679 137.702 656.882 137.793 657.049 137.934C657.216 138.074 657.34 138.259 657.407 138.466C657.475 138.674 657.483 138.896 657.43 139.108C657.377 139.32 657.266 139.512 657.11 139.664L654.877 141.849C654.741 141.981 654.639 142.144 654.581 142.323C654.522 142.503 654.508 142.695 654.54 142.881L655.064 145.94C655.102 146.155 655.078 146.375 654.996 146.577C654.914 146.779 654.778 146.954 654.602 147.082C654.426 147.21 654.218 147.287 654 147.303C653.783 147.319 653.566 147.274 653.373 147.173L650.607 145.722C650.44 145.633 650.254 145.587 650.065 145.587C649.876 145.587 649.69 145.633 649.523 145.722L646.756 147.173C646.563 147.275 646.346 147.321 646.128 147.305C645.91 147.29 645.701 147.214 645.524 147.085C645.347 146.957 645.21 146.782 645.128 146.579C645.046 146.377 645.023 146.155 645.061 145.94L645.589 142.881C645.621 142.695 645.608 142.503 645.549 142.323C645.49 142.144 645.389 141.981 645.253 141.849L643.02 139.664C642.863 139.512 642.752 139.32 642.699 139.108C642.647 138.896 642.655 138.674 642.722 138.466C642.789 138.259 642.914 138.074 643.081 137.934C643.248 137.793 643.451 137.702 643.667 137.671L646.756 137.234C646.943 137.207 647.12 137.135 647.273 137.024C647.425 136.912 647.548 136.766 647.63 136.596L649.011 133.799C649.108 133.602 649.257 133.435 649.444 133.319C649.63 133.202 649.845 133.14 650.065 133.14C650.284 133.14 650.5 133.202 650.686 133.319C650.872 133.435 651.022 133.602 651.118 133.799V133.799Z" fill="#FEC272"/>
<path d="M503.26 429.8L504.418 432.147C504.487 432.289 504.59 432.413 504.718 432.506C504.846 432.599 504.995 432.659 505.152 432.68L507.744 433.056C507.924 433.082 508.094 433.159 508.233 433.277C508.373 433.394 508.477 433.549 508.533 433.722C508.59 433.896 508.596 434.082 508.552 434.259C508.509 434.437 508.416 434.598 508.286 434.725L506.411 436.552C506.296 436.664 506.21 436.802 506.161 436.954C506.112 437.107 506.102 437.269 506.131 437.426L506.568 440.005C506.598 440.185 506.577 440.37 506.508 440.538C506.439 440.707 506.325 440.854 506.177 440.961C506.03 441.069 505.856 441.133 505.674 441.147C505.492 441.161 505.31 441.124 505.148 441.041L502.831 439.821C502.691 439.748 502.535 439.71 502.377 439.71C502.219 439.71 502.063 439.748 501.922 439.821L499.615 441.032C499.453 441.117 499.27 441.155 499.087 441.142C498.905 441.129 498.73 441.065 498.582 440.957C498.434 440.849 498.319 440.702 498.251 440.532C498.182 440.362 498.163 440.176 498.194 439.996L498.631 437.418C498.658 437.26 498.647 437.098 498.597 436.946C498.548 436.793 498.462 436.655 498.347 436.544L496.477 434.717C496.346 434.589 496.254 434.428 496.21 434.251C496.166 434.073 496.173 433.887 496.229 433.714C496.286 433.54 496.389 433.386 496.529 433.268C496.668 433.15 496.838 433.074 497.019 433.047L499.606 432.671C499.763 432.649 499.913 432.589 500.041 432.496C500.17 432.403 500.274 432.281 500.345 432.138L501.503 429.791C501.584 429.628 501.71 429.49 501.866 429.394C502.022 429.298 502.201 429.248 502.384 429.249C502.567 429.25 502.746 429.302 502.901 429.399C503.055 429.497 503.18 429.636 503.26 429.8V429.8Z" fill="#FEC272"/>
<g style="mix-blend-mode:soft-light" opacity="0.48">
<path d="M544.644 182.795C555.399 180.424 563.439 175.418 562.6 171.614C561.762 167.809 552.363 166.647 541.607 169.018C530.852 171.389 522.813 176.394 523.651 180.199C524.49 184.003 533.888 185.165 544.644 182.795Z" fill="white"/>
</g>
<g style="mix-blend-mode:multiply">
<path d="M569.139 305.489C569.139 305.489 556.766 294.432 554.524 294.432C552.282 294.432 546.312 303.173 547.658 305.489C549.004 307.806 555.918 315.392 563.51 317.726C565.97 313.032 569.139 305.489 569.139 305.489Z" fill="#E1ECFF"/>
</g>
<g style="mix-blend-mode:multiply" opacity="0.5">
<path d="M580.467 259.456L609.359 342.323L651.463 315.672L618.764 228.999L580.467 259.456Z" fill="#FF97C9"/>
</g>
<g style="mix-blend-mode:multiply">
<path d="M659.95 387.185C655.62 390.772 650.753 393.658 645.528 395.737C640.629 397.625 638.973 401.489 640.454 408.578C641.936 415.666 642.766 426.719 645.825 429.63C648.885 432.54 659.408 430.993 664.863 424.228C663.154 410.898 659.95 387.185 659.95 387.185Z" fill="#E1ECFF"/>
</g>
<g style="mix-blend-mode:multiply">
<path d="M688.467 314.912C688.467 314.912 682.349 317.578 682.93 321.83C683.511 326.082 689.761 346.636 692.226 348.489C694.69 350.342 701.985 347.056 701.985 347.056C694.494 325.833 688.467 314.912 688.467 314.912Z" fill="#E1ECFF"/>
</g>
<path d="M430.266 364.096C425.401 354.009 441.253 343.214 454.74 343.992C468.227 344.77 473.895 357.221 478.672 361.867C488.649 371.561 488.335 381.044 481.425 385.122C474.516 389.199 436.703 377.439 430.266 364.096Z" fill="#99ADF9"/>
<path d="M702.347 207.833C698.414 204.389 702.461 188.202 711.752 184.412C721.044 180.623 732.582 184.766 735.047 191.261C737.511 197.755 710.411 214.887 702.347 207.833Z" fill="#99ADF9"/>
<path d="M747.878 216.495C745.863 219.367 744.522 227.544 748.774 228.999C753.026 230.454 756.243 222.041 754.748 217.662C753.254 213.283 749.224 214.577 747.878 216.495Z" fill="#99ADF9"/>
<path opacity="0.44" d="M750.937 150.14C747.764 151.635 742.533 158.059 745.505 161.437C748.477 164.816 755.439 159.108 756.317 154.567C757.196 150.026 753.057 149.144 750.937 150.14Z" fill="#99ADF9"/>
<path opacity="0.44" d="M452.581 406.537C449.836 404.351 441.764 402.494 440.042 406.65C438.32 410.806 446.519 414.517 450.968 413.319C455.417 412.122 454.408 407.996 452.581 406.537Z" fill="#99ADF9"/>
<g style="mix-blend-mode:multiply" opacity="0.64">
<path d="M476.281 359.101C471.399 360.018 472.186 364.384 473.751 368.339C475.315 372.295 480.822 373.422 484.707 369.808C482.186 363.807 476.281 359.101 476.281 359.101Z" fill="#99ADF9"/>
</g>
<g style="mix-blend-mode:multiply" opacity="0.64">
<path d="M448.219 352.514C444.723 352.903 441.873 357.964 444.338 362.068C446.803 366.172 451.501 369.161 454.189 368.042C456.877 366.924 457.327 360.875 455.387 356.994C453.446 353.113 451.58 352.139 448.219 352.514Z" fill="#99ADF9"/>
</g>
<g style="mix-blend-mode:multiply" opacity="0.64">
<path d="M724.138 187.9C722.219 188.512 720.275 190.588 720.445 192.83C720.615 195.072 722.573 197.03 724.697 196.763C726.821 196.496 728.631 193.066 728.194 190.601C727.757 188.136 725.602 187.437 724.138 187.9Z" fill="#99ADF9"/>
</g>
<g style="mix-blend-mode:multiply" opacity="0.64">
<path d="M703.82 192.27C703.82 192.27 706.442 194.893 706.005 197.869C705.568 200.845 701.049 200.57 701.049 200.57C701.049 200.57 701.722 195.496 703.82 192.27Z" fill="#99ADF9"/>
</g>
</svg>
