<svg id="Layer_1" data-name="Layer 1" xmlns="http://www.w3.org/2000/svg" xmlns:xlink="http://www.w3.org/1999/xlink" viewBox="0 0 69 78"><defs><style>.cls-1{fill:url(#linear-gradient);}.cls-2{fill:url(#linear-gradient-2);}.cls-3{fill:#a890c3;}.cls-4{fill:#7c3aed;}</style><linearGradient id="linear-gradient" x1="2.25" y1="43.39" x2="69.75" y2="38.39" gradientTransform="matrix(1, 0, 0, -1, 0, 80)" gradientUnits="userSpaceOnUse"><stop offset="0" stop-color="#fff"/><stop offset="1" stop-color="#f9f9f9"/></linearGradient><linearGradient id="linear-gradient-2" x1="34.5" y1="79.84" x2="34.5" y2="16.25" gradientTransform="matrix(1, 0, 0, -1, 0, 80)" gradientUnits="userSpaceOnUse"><stop offset="0" stop-color="#fdfbfb"/><stop offset="1" stop-color="#ebedee"/></linearGradient></defs><title>icon-logo-dark</title><rect class="cls-1" width="69" height="78" rx="11"/><path class="cls-2" d="M.2,10.4A10.3,10.3,0,0,1,10.5.2h48A10.3,10.3,0,0,1,68.8,10.4V53.5A10.3,10.3,0,0,1,58.5,63.8h-48A10.3,10.3,0,0,1,.2,53.5Z"/><path class="cls-3" d="M19.8,7h1A10.8,10.8,0,0,1,31.6,17.8h0A10.9,10.9,0,0,1,20.8,28.6h-1A10.9,10.9,0,0,1,9,17.8H9A10.8,10.8,0,0,1,19.8,7Z"/><rect class="cls-4" x="36.5" y="7" width="22.5" height="21.55" rx="4"/><rect class="cls-4" x="9" y="33.5" width="22.5" height="21.55" rx="4"/><path class="cls-3" d="M47.2,33.5h1A10.7,10.7,0,0,1,59,44.2h0A10.8,10.8,0,0,1,48.2,55h-1A10.7,10.7,0,0,1,36.5,44.2h0A10.7,10.7,0,0,1,47.2,33.5Z"/></svg>