<svg id="Layer_1" data-name="Layer 1" xmlns="http://www.w3.org/2000/svg" xmlns:xlink="http://www.w3.org/1999/xlink" viewBox="0 0 407 78"><defs><style>.cls-1{fill:url(#linear-gradient);}.cls-2{fill:url(#linear-gradient-2);}.cls-3{fill:#a890c3;}.cls-4{fill:#7c3aed;}.cls-5{fill:#141516;}</style><linearGradient id="linear-gradient" x1="3.4" y1="43.39" x2="70.9" y2="38.39" gradientTransform="matrix(1, 0, 0, -1, 0, 80)" gradientUnits="userSpaceOnUse"><stop offset="0" stop-color="#c4c4c4"/><stop offset="1" stop-color="#ababab"/></linearGradient><linearGradient id="linear-gradient-2" x1="35.65" y1="79.84" x2="35.65" y2="16.25" gradientTransform="matrix(1, 0, 0, -1, 0, 80)" gradientUnits="userSpaceOnUse"><stop offset="0" stop-color="#fdfbfb"/><stop offset="1" stop-color="#ebedee"/></linearGradient></defs><title>text-logo-light</title><rect class="cls-1" x="1.1" width="69" height="78" rx="11"/><path class="cls-2" d="M1.4,10.4A10.2,10.2,0,0,1,11.6.2h48A10.3,10.3,0,0,1,69.9,10.4V53.5A10.3,10.3,0,0,1,59.6,63.8h-48A10.3,10.3,0,0,1,1.4,53.5Z"/><path class="cls-3" d="M21,7h.9A10.8,10.8,0,0,1,32.7,17.8h0A10.8,10.8,0,0,1,21.9,28.6H21A10.8,10.8,0,0,1,10.2,17.8h0A10.8,10.8,0,0,1,21,7Z"/><rect class="cls-4" x="37.6" y="7" width="22.5" height="21.55" rx="4"/><rect class="cls-4" x="10.2" y="33.5" width="22.5" height="21.55" rx="4"/><path class="cls-3" d="M48.4,33.5h1A10.7,10.7,0,0,1,60.1,44.2h0A10.7,10.7,0,0,1,49.4,55h-1A10.8,10.8,0,0,1,37.6,44.2h0A10.7,10.7,0,0,1,48.4,33.5Z"/><path class="cls-5" d="M131,57.4h9.6l6.2-20.6h.3l6.3,20.6H163l10.8-36.9H162.7l-5.1,22.7h-.2l-6-22.7h-8.8l-6,22.7h-.3l-5-22.7H120.1Z"/><path class="cls-5" d="M218.7,20.5V57.4h9.8V35.9h.3L237,57.1h5.9L251.1,36h.3V57.4h9.8V20.5H248.7l-8.5,20.9h-.5l-8.5-20.9Z"/><path class="cls-5" d="M281,20.5H271V57.4h10Z"/><path class="cls-5" d="M322.7,20.5h-10V39.8h-.3L299.3,20.5h-8.5V57.4h10V38h.2l13.3,19.4h8.4Z"/><path class="cls-5" d="M346.7,57.4c11.2,0,18.3-7,18.3-18.5s-7.1-18.4-18.5-18.4h-14V57.4Zm-4.2-8.5V29H346c5.8,0,8.9,2.2,8.9,9.9s-3.1,10-8.6,10Z"/><path class="cls-5" d="M394.6,32h9.5c0-7.2-5.6-12-14.5-12s-14.9,4.7-14.9,11.7,4,9,10.5,10.4l3.7.8c4.1.9,5.5,1.9,5.5,3.6s-1.7,3.1-4.9,3.1-6.1-1.8-6.2-5.2h-9.5c0,9.2,6.3,13.4,15.9,13.4s14.9-4,15-11.3c-.1-5.6-3.4-9.6-11.6-11.3l-3-.7c-3.5-.7-5-1.7-5-3.5s1.4-2.8,4.5-2.8S394.4,29.6,394.6,32Z"/><path class="cls-4" d="M181.9,23.7a3.7,3.7,0,0,1,3.7-3.7h19.5a3.7,3.7,0,0,1,3.7,3.7h0a3.7,3.7,0,0,1-3.7,3.7H185.6a3.7,3.7,0,0,1-3.7-3.7Z"/><path class="cls-4" d="M181.9,39a3.7,3.7,0,0,1,3.7-3.7h19.5a3.7,3.7,0,0,1,3.7,3.7h0a3.7,3.7,0,0,1-3.7,3.7H185.6a3.7,3.7,0,0,1-3.7-3.7Z"/><path class="cls-4" d="M181.9,54.3a3.7,3.7,0,0,1,3.7-3.7h19.5a3.7,3.7,0,0,1,3.7,3.7h0a3.7,3.7,0,0,1-3.7,3.7H185.6a3.7,3.7,0,0,1-3.7-3.7Z"/></svg>