<svg width="505" height="78" viewBox="0 0 505 78" fill="none" xmlns="http://www.w3.org/2000/svg">
<rect width="69" height="78" rx="11" fill="url(#paint0_linear)"/>
<path d="M0.217285 10.4405C0.217285 4.76034 4.82199 0.15564 10.5022 0.15564H58.4984C64.1786 0.15564 68.7833 4.76035 68.7833 10.4405V53.4682C68.7833 59.1484 64.1786 63.7531 58.4984 63.7531H10.5022C4.82199 63.7531 0.217285 59.1484 0.217285 53.4682V10.4405Z" fill="url(#paint1_linear)"/>
<g filter="url(#filter0_i)">
<rect x="9.03271" y="7.01294" width="22.5288" height="21.5493" rx="10.7747" fill="#A890C3"/>
</g>
<g filter="url(#filter1_i)">
<rect x="36.459" y="7.01294" width="22.5288" height="21.5493" rx="4" fill="#7C3AED"/>
</g>
<g filter="url(#filter2_i)">
<rect x="9.03271" y="33.4597" width="22.5288" height="21.5493" rx="4" fill="#7C3AED"/>
</g>
<g filter="url(#filter3_i)">
<rect x="36.459" y="33.4597" width="22.5288" height="21.5493" rx="10.7747" fill="#A890C3"/>
</g>
<path d="M140.08 32.0646H149.782C149.745 24.8042 144.092 20 135.047 20C126.167 20 119.894 24.7319 119.948 31.7757C119.93 37.5551 123.978 40.77 130.598 42.1787L134.318 42.9734C138.475 43.8764 139.898 44.9059 139.934 46.5855C139.898 48.4097 138.22 49.692 134.974 49.692C131.09 49.692 128.792 47.8859 128.628 44.4905H119C119.036 53.7738 125.382 57.9278 135.12 57.9278C144.584 57.9278 150.256 53.8821 150.292 46.5855C150.256 40.9506 146.864 36.9952 138.621 35.2433L135.558 34.5932C132.02 33.8527 130.434 32.8232 130.525 31.0532C130.543 29.4278 131.911 28.2357 135.047 28.2357C138.33 28.2357 139.88 29.6625 140.08 32.0646Z" fill="#7C3AED"/>
<path d="M193.123 34.3764C192.321 25.2015 185.537 20 176.128 20C166.062 20 158.111 26.6464 158.111 39C158.111 51.2994 165.843 58 176.128 58C187.069 58 192.613 50.4867 193.123 44.2015L182.838 44.1293C182.328 47.2899 180.067 49.2586 176.347 49.2586C171.405 49.2586 168.542 45.7909 168.542 39C168.542 32.5703 171.314 28.7414 176.42 28.7414C180.322 28.7414 182.547 31.0171 182.838 34.3764H193.123Z" fill="#7C3AED"/>
<path d="M201.831 57.4943H211.97V43.0456H225.391V57.4943H235.53V20.5057H225.391V34.9544H211.97V20.5057H201.831V57.4943Z" fill="#7C3AED"/>
<path d="M244.453 57.4943H271.295V49.403H254.592V43.0456H269.982V34.9544H254.592V28.597H271.368V20.5057H244.453V57.4943Z" fill="#7C3AED"/>
<path d="M280.505 20.5057V57.4943H290.425V35.9658H290.717L299.032 57.2053H305.013L313.329 36.1103H313.62V57.4943H323.541V20.5057H310.922L302.241 41.4563H301.804L293.124 20.5057H280.505Z" fill="#7C3AED"/>
<path d="M342.155 57.4943L344.307 50.4144H356.634L358.786 57.4943H369.727L357.4 20.5057H343.541L331.214 57.4943H342.155ZM346.604 42.9011L350.324 30.692H350.616L354.336 42.9011H346.604Z" fill="#7C3AED"/>
<path d="M371.647 28.597H382.88V57.4943H392.873V28.597H404.106V20.5057H371.647V28.597Z" fill="#7C3AED"/>
<path d="M422.169 20.5057H412.03V57.4943H422.169V20.5057Z" fill="#7C3AED"/>
<path d="M465.948 34.3764C465.146 25.2015 458.362 20 448.953 20C438.887 20 430.936 26.6464 430.936 39C430.936 51.2994 438.668 58 448.953 58C459.894 58 465.438 50.4867 465.948 44.2015L455.663 44.1293C455.153 47.2899 452.892 49.2586 449.171 49.2586C444.23 49.2586 441.367 45.7909 441.367 39C441.367 32.5703 444.139 28.7414 449.244 28.7414C453.147 28.7414 455.372 31.0171 455.663 34.3764H465.948Z" fill="#7C3AED"/>
<path d="M494.788 32.0646H504.489C504.453 24.8042 498.8 20 489.755 20C480.874 20 474.601 24.7319 474.656 31.7757C474.638 37.5551 478.686 40.77 485.306 42.1787L489.026 42.9734C493.183 43.8764 494.606 44.9059 494.642 46.5855C494.606 48.4097 492.928 49.692 489.682 49.692C485.798 49.692 483.5 47.8859 483.336 44.4905H473.708C473.744 53.7738 480.09 57.9278 489.828 57.9278C499.292 57.9278 504.964 53.8821 505 46.5855C504.964 40.9506 501.572 36.9952 493.329 35.2433L490.266 34.5932C486.728 33.8527 485.142 32.8232 485.233 31.0532C485.251 29.4278 486.619 28.2357 489.755 28.2357C493.038 28.2357 494.588 29.6625 494.788 32.0646Z" fill="#7C3AED"/>
<defs>
<filter id="filter0_i" x="9.03271" y="7.01294" width="22.5288" height="25.5493" filterUnits="userSpaceOnUse" color-interpolation-filters="sRGB">
<feFlood flood-opacity="0" result="BackgroundImageFix"/>
<feBlend mode="normal" in="SourceGraphic" in2="BackgroundImageFix" result="shape"/>
<feColorMatrix in="SourceAlpha" type="matrix" values="0 0 0 0 0 0 0 0 0 0 0 0 0 0 0 0 0 0 127 0" result="hardAlpha"/>
<feOffset dy="4"/>
<feGaussianBlur stdDeviation="2"/>
<feComposite in2="hardAlpha" operator="arithmetic" k2="-1" k3="1"/>
<feColorMatrix type="matrix" values="0 0 0 0 0 0 0 0 0 0 0 0 0 0 0 0 0 0 0.25 0"/>
<feBlend mode="normal" in2="shape" result="effect1_innerShadow"/>
</filter>
<filter id="filter1_i" x="36.459" y="7.01294" width="22.5288" height="25.5493" filterUnits="userSpaceOnUse" color-interpolation-filters="sRGB">
<feFlood flood-opacity="0" result="BackgroundImageFix"/>
<feBlend mode="normal" in="SourceGraphic" in2="BackgroundImageFix" result="shape"/>
<feColorMatrix in="SourceAlpha" type="matrix" values="0 0 0 0 0 0 0 0 0 0 0 0 0 0 0 0 0 0 127 0" result="hardAlpha"/>
<feOffset dy="4"/>
<feGaussianBlur stdDeviation="2"/>
<feComposite in2="hardAlpha" operator="arithmetic" k2="-1" k3="1"/>
<feColorMatrix type="matrix" values="0 0 0 0 0 0 0 0 0 0 0 0 0 0 0 0 0 0 0.25 0"/>
<feBlend mode="normal" in2="shape" result="effect1_innerShadow"/>
</filter>
<filter id="filter2_i" x="9.03271" y="33.4597" width="22.5288" height="25.5493" filterUnits="userSpaceOnUse" color-interpolation-filters="sRGB">
<feFlood flood-opacity="0" result="BackgroundImageFix"/>
<feBlend mode="normal" in="SourceGraphic" in2="BackgroundImageFix" result="shape"/>
<feColorMatrix in="SourceAlpha" type="matrix" values="0 0 0 0 0 0 0 0 0 0 0 0 0 0 0 0 0 0 127 0" result="hardAlpha"/>
<feOffset dy="4"/>
<feGaussianBlur stdDeviation="2"/>
<feComposite in2="hardAlpha" operator="arithmetic" k2="-1" k3="1"/>
<feColorMatrix type="matrix" values="0 0 0 0 0 0 0 0 0 0 0 0 0 0 0 0 0 0 0.25 0"/>
<feBlend mode="normal" in2="shape" result="effect1_innerShadow"/>
</filter>
<filter id="filter3_i" x="36.459" y="33.4597" width="22.5288" height="25.5493" filterUnits="userSpaceOnUse" color-interpolation-filters="sRGB">
<feFlood flood-opacity="0" result="BackgroundImageFix"/>
<feBlend mode="normal" in="SourceGraphic" in2="BackgroundImageFix" result="shape"/>
<feColorMatrix in="SourceAlpha" type="matrix" values="0 0 0 0 0 0 0 0 0 0 0 0 0 0 0 0 0 0 127 0" result="hardAlpha"/>
<feOffset dy="4"/>
<feGaussianBlur stdDeviation="2"/>
<feComposite in2="hardAlpha" operator="arithmetic" k2="-1" k3="1"/>
<feColorMatrix type="matrix" values="0 0 0 0 0 0 0 0 0 0 0 0 0 0 0 0 0 0 0.25 0"/>
<feBlend mode="normal" in2="shape" result="effect1_innerShadow"/>
</filter>
<linearGradient id="paint0_linear" x1="-1.21246e-06" y1="67" x2="67.5" y2="72" gradientUnits="userSpaceOnUse">
<stop stop-color="#C4C4C4"/>
<stop offset="1" stop-color="#ABABAB"/>
</linearGradient>
<linearGradient id="paint1_linear" x1="34.5003" y1="0.15564" x2="34.5003" y2="63.7531" gradientUnits="userSpaceOnUse">
<stop stop-color="#FDFBFB"/>
<stop offset="1" stop-color="#EBEDEE"/>
</linearGradient>
</defs>
</svg>
